<svg id="svg" xmlns="http://www.w3.org/2000/svg" xmlns:xlink="http://www.w3.org/1999/xlink" width="400" height="400" viewBox="0, 0, 400,400" version="1.1"><g id="svgg"><path id="path0" d="M58.597 132.067 C 58.486 132.360,58.441 165.630,58.497 206.000 L 58.600 279.400 85.000 279.521 C 122.975 279.694,131.047 278.344,142.989 269.823 C 166.798 252.833,162.824 212.794,136.509 204.543 L 133.219 203.512 134.619 202.561 C 148.578 193.088,154.516 181.136,152.680 166.205 C 150.242 146.375,138.218 135.640,114.975 132.541 C 108.323 131.653,58.913 131.239,58.597 132.067 M164.695 131.864 C 164.587 132.049,165.299 134.720,166.276 137.800 C 170.825 152.140,175.036 165.503,177.873 174.600 C 178.628 177.020,179.490 179.720,179.789 180.600 C 180.088 181.480,181.167 184.900,182.186 188.200 C 183.205 191.500,184.285 194.920,184.586 195.800 C 184.887 196.680,185.973 200.100,187.001 203.400 C 188.028 206.700,189.950 212.820,191.272 217.000 C 194.691 227.814,200.030 244.737,205.626 262.500 C 206.960 266.735,208.715 272.270,209.526 274.800 L 211.000 279.400 218.281 279.509 C 226.793 279.636,225.662 280.362,227.999 273.270 C 228.845 270.701,231.724 262.210,234.397 254.400 C 242.709 230.109,245.651 221.479,246.400 219.200 C 246.798 217.990,249.313 210.610,251.989 202.800 C 258.837 182.818,263.095 170.313,264.282 166.700 C 265.590 162.719,265.496 162.652,267.681 169.100 C 268.706 172.125,271.731 180.990,274.403 188.800 C 277.076 196.610,279.954 205.070,280.800 207.600 C 281.646 210.130,284.532 218.590,287.213 226.400 C 289.894 234.210,292.409 241.590,292.803 242.800 C 293.196 244.010,295.713 251.390,298.397 259.200 C 301.081 267.010,303.590 274.391,303.972 275.603 C 305.348 279.959,304.603 279.633,312.919 279.509 L 320.200 279.400 321.454 275.600 C 322.144 273.510,323.539 269.145,324.554 265.900 C 328.343 253.792,330.609 246.576,335.138 232.200 C 336.456 228.020,338.381 221.900,339.417 218.600 C 341.706 211.310,343.206 206.543,346.338 196.600 C 348.639 189.297,351.015 181.739,353.818 172.800 C 354.542 170.490,356.214 165.180,357.533 161.000 C 358.852 156.820,360.779 150.700,361.815 147.400 C 362.851 144.100,364.307 139.510,365.049 137.200 C 367.064 130.934,367.694 131.500,358.900 131.671 C 350.274 131.840,348.853 132.264,346.978 135.235 C 346.132 136.575,339.988 155.917,331.742 183.200 C 331.177 185.070,330.476 187.320,330.183 188.200 C 329.891 189.080,329.179 191.420,328.601 193.400 C 328.023 195.380,327.393 197.450,327.201 198.000 C 327.009 198.550,326.288 200.890,325.600 203.200 C 324.912 205.510,324.192 207.850,324.000 208.400 C 323.808 208.950,323.088 211.290,322.400 213.600 C 321.712 215.910,320.991 218.250,320.799 218.800 C 320.607 219.350,319.998 221.330,319.444 223.200 C 317.141 230.986,313.528 242.722,312.928 244.366 L 312.283 246.132 310.519 240.966 C 309.548 238.125,308.153 234.090,307.418 232.000 C 306.096 228.241,303.179 219.756,298.409 205.800 C 297.055 201.840,295.251 196.620,294.400 194.200 C 293.549 191.780,291.776 186.650,290.460 182.800 C 289.143 178.950,286.237 170.490,284.000 164.000 C 281.763 157.510,278.862 149.050,277.552 145.200 C 273.541 133.407,272.009 131.604,266.000 131.604 C 260.110 131.604,258.057 133.633,255.073 142.400 C 254.287 144.710,252.928 148.670,252.052 151.200 C 246.870 166.174,242.222 179.691,241.600 181.600 C 241.205 182.810,239.045 189.110,236.800 195.600 C 234.555 202.090,232.395 208.390,232.000 209.600 C 231.605 210.810,229.452 217.110,227.215 223.600 C 224.978 230.090,222.510 237.271,221.730 239.557 C 220.951 241.843,220.094 244.236,219.825 244.875 C 219.373 245.950,218.069 241.916,202.443 191.119 C 184.656 133.291,184.823 133.773,182.029 132.501 C 180.450 131.783,165.073 131.218,164.695 131.864 M113.600 148.778 C 127.694 150.996,134.512 158.416,134.571 171.600 C 134.629 184.420,128.009 192.237,114.005 195.886 C 110.333 196.842,109.618 196.884,93.500 197.094 L 76.800 197.312 76.800 172.616 L 76.800 147.921 93.700 148.113 C 103.713 148.227,111.823 148.498,113.600 148.778 M112.000 212.801 C 130.526 214.152,140.520 222.723,140.493 237.235 C 140.466 251.186,132.404 260.054,117.600 262.417 C 115.731 262.715,107.477 262.968,95.700 263.087 L 76.800 263.278 76.800 237.839 L 76.800 212.400 91.700 212.404 C 99.895 212.405,109.030 212.584,112.000 212.801 " stroke="none" fill="#fafafa" fill-rule="evenodd"></path><path id="path1" d="M183.213 2.672 C 181.350 2.762,179.730 2.979,179.613 3.155 C 179.496 3.331,176.703 3.696,173.406 3.966 C 170.109 4.236,167.319 4.600,167.206 4.775 C 167.093 4.950,165.155 5.318,162.900 5.592 C 160.645 5.866,158.800 6.224,158.800 6.387 C 158.800 6.550,157.180 6.916,155.200 7.200 C 153.220 7.484,151.600 7.841,151.600 7.994 C 151.600 8.147,150.340 8.509,148.800 8.800 C 147.260 9.091,146.000 9.463,146.000 9.628 C 146.000 9.793,144.740 10.140,143.200 10.400 C 141.660 10.660,140.400 11.011,140.400 11.181 C 140.400 11.352,139.320 11.720,138.000 12.000 C 136.680 12.280,135.600 12.636,135.600 12.791 C 135.600 12.946,134.577 13.302,133.326 13.582 C 132.076 13.861,130.819 14.324,130.534 14.609 C 130.249 14.894,129.292 15.249,128.408 15.399 C 127.524 15.548,126.800 15.817,126.800 15.995 C 126.800 16.174,125.900 16.536,124.800 16.800 C 123.700 17.064,122.800 17.403,122.800 17.553 C 122.800 17.703,121.990 18.065,121.000 18.357 C 120.010 18.649,119.200 19.040,119.200 19.226 C 119.200 19.412,118.556 19.685,117.768 19.832 C 116.981 19.980,116.248 20.330,116.141 20.610 C 116.033 20.890,115.148 21.320,114.173 21.565 C 113.198 21.811,112.400 22.160,112.400 22.342 C 112.400 22.524,111.680 22.889,110.800 23.153 C 109.920 23.416,109.200 23.776,109.200 23.953 C 109.200 24.129,108.480 24.489,107.600 24.753 C 106.720 25.016,106.000 25.383,106.000 25.568 C 106.000 25.752,105.415 26.140,104.700 26.429 C 103.985 26.718,103.310 27.065,103.200 27.200 C 103.090 27.335,102.415 27.682,101.700 27.971 C 100.985 28.260,100.400 28.638,100.400 28.809 C 100.400 28.981,99.860 29.310,99.200 29.540 C 98.540 29.770,98.000 30.133,98.000 30.347 C 98.000 30.561,97.461 30.855,96.802 30.999 C 96.144 31.144,95.469 31.474,95.302 31.732 C 95.136 31.990,94.460 32.471,93.800 32.800 C 93.140 33.129,92.456 33.624,92.280 33.899 C 92.104 34.175,91.727 34.400,91.442 34.400 C 91.157 34.400,90.401 34.850,89.762 35.400 C 89.123 35.949,88.375 36.399,88.100 36.400 C 87.825 36.400,87.600 36.584,87.600 36.810 C 87.600 37.035,87.150 37.391,86.600 37.600 C 86.050 37.809,85.600 38.165,85.600 38.390 C 85.600 38.616,85.332 38.800,85.003 38.800 C 84.675 38.800,84.182 39.160,83.907 39.600 C 83.632 40.040,83.226 40.400,83.004 40.400 C 82.629 40.401,81.162 41.477,79.500 42.971 C 79.115 43.317,78.630 43.600,78.423 43.600 C 78.215 43.600,77.810 43.931,77.523 44.337 C 77.235 44.742,76.550 45.308,76.000 45.595 C 75.450 45.882,74.856 46.361,74.680 46.658 C 74.504 46.956,74.172 47.200,73.943 47.200 C 73.713 47.200,72.777 47.923,71.863 48.807 C 67.918 52.619,64.626 55.600,64.361 55.600 C 63.988 55.600,55.200 64.415,55.200 64.789 C 55.200 64.946,54.120 66.228,52.799 67.637 C 51.478 69.047,49.768 70.875,48.999 71.700 C 48.230 72.525,47.600 73.370,47.600 73.577 C 47.600 73.785,47.269 74.190,46.863 74.477 C 46.458 74.765,45.890 75.450,45.600 76.000 C 45.310 76.550,44.742 77.235,44.337 77.523 C 43.931 77.810,43.600 78.215,43.600 78.423 C 43.600 78.630,43.317 79.115,42.971 79.500 C 41.477 81.162,40.401 82.629,40.400 83.004 C 40.400 83.226,40.040 83.632,39.600 83.907 C 39.160 84.182,38.800 84.675,38.800 85.003 C 38.800 85.332,38.616 85.600,38.390 85.600 C 38.165 85.600,37.809 86.050,37.600 86.600 C 37.391 87.150,37.035 87.600,36.810 87.600 C 36.584 87.600,36.400 87.825,36.400 88.100 C 36.399 88.375,35.949 89.123,35.400 89.762 C 34.850 90.401,34.400 91.157,34.400 91.442 C 34.400 91.727,34.175 92.104,33.899 92.280 C 33.624 92.456,33.129 93.140,32.800 93.800 C 32.471 94.460,31.990 95.136,31.732 95.302 C 31.474 95.469,31.144 96.144,30.999 96.802 C 30.855 97.461,30.561 98.000,30.347 98.000 C 30.133 98.000,29.770 98.540,29.540 99.200 C 29.310 99.860,28.993 100.400,28.836 100.400 C 28.678 100.400,28.302 101.030,28.000 101.800 C 27.698 102.570,27.340 103.200,27.206 103.200 C 27.071 103.200,26.733 103.830,26.454 104.600 C 26.176 105.370,25.787 106.000,25.590 106.000 C 25.393 106.000,25.016 106.720,24.753 107.600 C 24.489 108.480,24.129 109.200,23.953 109.200 C 23.776 109.200,23.416 109.920,23.153 110.800 C 22.889 111.680,22.529 112.400,22.353 112.400 C 22.176 112.400,21.816 113.120,21.553 114.000 C 21.289 114.880,20.961 115.600,20.824 115.600 C 20.687 115.600,20.335 116.410,20.043 117.400 C 19.751 118.390,19.373 119.200,19.203 119.200 C 19.034 119.200,18.691 120.010,18.442 121.000 C 18.192 121.990,17.829 122.800,17.634 122.800 C 17.439 122.800,17.064 123.700,16.800 124.800 C 16.536 125.900,16.174 126.800,15.995 126.800 C 15.817 126.800,15.548 127.524,15.399 128.408 C 15.249 129.292,14.894 130.249,14.609 130.534 C 14.324 130.819,13.861 132.076,13.582 133.326 C 13.302 134.577,12.946 135.600,12.791 135.600 C 12.636 135.600,12.280 136.680,12.000 138.000 C 11.720 139.320,11.352 140.400,11.181 140.400 C 11.011 140.400,10.660 141.660,10.400 143.200 C 10.140 144.740,9.793 146.000,9.628 146.000 C 9.463 146.000,9.091 147.260,8.800 148.800 C 8.509 150.340,8.158 151.600,8.020 151.600 C 7.881 151.600,7.528 153.175,7.234 155.100 C 6.941 157.025,6.558 158.691,6.385 158.802 C 6.211 158.913,5.844 160.893,5.569 163.202 C 5.293 165.511,4.924 167.497,4.748 167.615 C 4.572 167.733,4.213 170.433,3.950 173.615 C 3.686 176.815,3.277 179.528,3.036 179.685 C 2.422 180.087,2.421 219.512,3.036 219.915 C 3.276 220.072,3.679 222.709,3.933 225.775 C 4.186 228.841,4.549 231.451,4.738 231.575 C 4.927 231.699,5.312 233.825,5.594 236.300 C 5.876 238.775,6.244 240.800,6.412 240.800 C 6.580 240.800,6.935 242.330,7.200 244.200 C 7.465 246.070,7.809 247.600,7.963 247.600 C 8.118 247.600,8.471 248.950,8.748 250.600 C 9.025 252.250,9.387 253.600,9.553 253.600 C 9.718 253.600,10.086 254.770,10.370 256.200 C 10.654 257.630,11.023 258.800,11.189 258.800 C 11.355 258.800,11.720 259.880,12.000 261.200 C 12.280 262.520,12.640 263.600,12.800 263.600 C 12.960 263.600,13.320 264.680,13.600 266.000 C 13.880 267.320,14.252 268.400,14.426 268.400 C 14.600 268.400,14.964 269.390,15.235 270.600 C 15.506 271.810,15.857 272.800,16.016 272.800 C 16.175 272.800,16.509 273.610,16.758 274.600 C 17.008 275.590,17.371 276.400,17.566 276.400 C 17.761 276.400,18.136 277.300,18.400 278.400 C 18.664 279.500,19.043 280.400,19.241 280.400 C 19.440 280.400,19.820 281.210,20.084 282.200 C 20.349 283.190,20.680 284.000,20.819 284.000 C 20.958 284.000,21.310 284.720,21.600 285.600 C 21.890 286.480,22.250 287.200,22.400 287.200 C 22.550 287.200,22.910 287.920,23.200 288.800 C 23.490 289.680,23.850 290.400,24.000 290.400 C 24.150 290.400,24.506 291.111,24.793 291.979 C 25.080 292.848,25.542 293.645,25.819 293.752 C 26.097 293.859,26.446 294.498,26.594 295.173 C 26.742 295.848,27.007 296.400,27.183 296.400 C 27.359 296.400,27.727 296.940,28.000 297.600 C 28.273 298.260,28.641 298.800,28.817 298.800 C 28.993 298.800,29.255 299.339,29.399 299.998 C 29.544 300.656,29.884 301.331,30.155 301.498 C 30.425 301.664,30.883 302.385,31.172 303.100 C 31.461 303.815,31.833 304.400,32.000 304.400 C 32.167 304.400,32.527 304.940,32.800 305.600 C 33.073 306.260,33.433 306.800,33.600 306.800 C 33.767 306.800,34.142 307.377,34.434 308.083 C 34.727 308.788,35.243 309.676,35.583 310.054 C 36.660 311.256,37.078 311.825,37.600 312.800 C 38.136 313.802,38.559 314.371,39.700 315.629 C 40.085 316.053,40.400 316.578,40.400 316.797 C 40.400 317.015,40.760 317.418,41.200 317.693 C 41.640 317.968,42.002 318.374,42.005 318.596 C 42.012 319.059,43.378 320.885,44.700 322.198 C 45.195 322.690,45.603 323.251,45.607 323.446 C 45.611 323.641,46.061 324.224,46.607 324.742 C 47.153 325.260,47.600 325.851,47.600 326.054 C 47.600 326.258,48.320 327.087,49.200 327.896 C 50.080 328.705,50.800 329.511,50.800 329.686 C 50.800 329.862,52.060 331.263,53.600 332.800 C 55.140 334.337,56.400 335.711,56.400 335.854 C 56.400 336.190,63.807 343.600,64.144 343.600 C 64.285 343.600,65.435 344.588,66.700 345.796 C 72.039 350.893,73.706 352.400,74.002 352.400 C 74.175 352.400,74.740 352.847,75.258 353.393 C 75.776 353.939,76.419 354.389,76.686 354.393 C 76.953 354.397,77.365 354.760,77.600 355.200 C 77.835 355.640,78.247 356.003,78.514 356.007 C 78.781 356.011,79.424 356.461,79.942 357.007 C 80.460 357.553,81.116 358.000,81.399 358.000 C 81.683 358.000,82.018 358.270,82.145 358.600 C 82.271 358.930,82.644 359.200,82.973 359.200 C 83.303 359.200,83.765 359.560,84.000 360.000 C 84.235 360.440,84.683 360.800,84.994 360.800 C 85.306 360.800,85.704 361.025,85.880 361.301 C 86.056 361.576,86.735 362.071,87.388 362.401 C 88.041 362.730,88.883 363.270,89.259 363.600 C 90.400 364.602,90.948 364.974,92.200 365.599 C 92.860 365.929,93.536 366.410,93.702 366.668 C 93.869 366.926,94.544 367.256,95.202 367.401 C 95.861 367.545,96.400 367.834,96.400 368.042 C 96.400 368.250,96.850 368.591,97.400 368.800 C 97.950 369.009,98.400 369.336,98.400 369.526 C 98.400 369.716,99.111 370.106,99.979 370.393 C 100.848 370.680,101.645 371.142,101.752 371.419 C 101.859 371.697,102.498 372.046,103.173 372.194 C 103.848 372.342,104.400 372.607,104.400 372.783 C 104.400 372.959,104.940 373.327,105.600 373.600 C 106.260 373.873,106.800 374.227,106.800 374.385 C 106.800 374.544,107.520 374.889,108.400 375.153 C 109.280 375.416,110.000 375.776,110.000 375.953 C 110.000 376.129,110.720 376.489,111.600 376.753 C 112.480 377.016,113.200 377.397,113.200 377.598 C 113.200 377.799,113.833 378.082,114.606 378.227 C 115.379 378.372,116.144 378.709,116.306 378.976 C 116.468 379.243,117.455 379.696,118.500 379.983 C 119.545 380.269,120.400 380.658,120.400 380.846 C 120.400 381.034,121.210 381.392,122.200 381.642 C 123.190 381.891,124.000 382.220,124.000 382.372 C 124.000 382.524,124.940 382.890,126.088 383.184 C 127.237 383.478,128.403 383.946,128.680 384.223 C 128.957 384.500,129.908 384.849,130.792 384.999 C 131.676 385.148,132.400 385.410,132.400 385.581 C 132.400 385.751,133.480 386.120,134.800 386.400 C 136.120 386.680,137.200 387.040,137.200 387.200 C 137.200 387.360,138.280 387.720,139.600 388.000 C 140.920 388.280,142.000 388.630,142.000 388.777 C 142.000 388.924,143.350 389.271,145.000 389.548 C 146.650 389.825,148.000 390.184,148.000 390.346 C 148.000 390.667,152.112 391.600,153.524 391.600 C 154.006 391.600,154.400 391.761,154.400 391.959 C 154.400 392.156,155.930 392.545,157.800 392.823 C 159.670 393.101,161.200 393.456,161.200 393.611 C 161.200 393.766,163.225 394.124,165.700 394.406 C 168.175 394.688,170.290 395.039,170.400 395.187 C 170.628 395.493,181.129 396.413,184.300 396.405 C 185.455 396.402,186.400 396.580,186.400 396.800 C 186.400 397.059,191.133 397.200,199.800 397.200 C 208.467 397.200,213.200 397.059,213.200 396.800 C 213.200 396.580,214.226 396.400,215.479 396.400 C 218.837 396.400,228.968 395.516,229.200 395.202 C 229.310 395.054,231.289 394.707,233.598 394.431 C 235.907 394.156,237.887 393.795,237.998 393.629 C 238.109 393.463,239.865 393.083,241.900 392.786 C 243.935 392.488,245.600 392.122,245.600 391.971 C 245.600 391.821,247.040 391.474,248.800 391.200 C 250.560 390.926,252.000 390.565,252.000 390.396 C 252.000 390.228,253.170 389.870,254.600 389.600 C 256.030 389.330,257.200 388.974,257.200 388.809 C 257.200 388.644,258.280 388.280,259.600 388.000 C 260.920 387.720,262.000 387.360,262.000 387.200 C 262.000 387.040,263.080 386.680,264.400 386.400 C 265.720 386.120,266.800 385.764,266.800 385.609 C 266.800 385.454,267.790 385.106,269.000 384.835 C 270.210 384.564,271.200 384.204,271.200 384.035 C 271.200 383.866,272.190 383.490,273.400 383.200 C 274.610 382.910,275.600 382.524,275.600 382.342 C 275.600 382.160,276.410 381.808,277.400 381.558 C 278.390 381.309,279.200 380.966,279.200 380.797 C 279.200 380.627,280.010 380.249,281.000 379.957 C 281.990 379.665,282.800 379.313,282.800 379.176 C 282.800 379.039,283.520 378.711,284.400 378.447 C 285.280 378.184,286.000 377.824,286.000 377.647 C 286.000 377.471,286.720 377.111,287.600 376.847 C 288.480 376.584,289.200 376.224,289.200 376.047 C 289.200 375.871,289.920 375.511,290.800 375.247 C 291.680 374.984,292.400 374.629,292.400 374.459 C 292.400 374.288,293.030 373.902,293.800 373.600 C 294.570 373.298,295.200 372.940,295.200 372.806 C 295.200 372.671,295.830 372.333,296.600 372.054 C 297.370 371.776,298.000 371.387,298.000 371.190 C 298.000 370.993,298.720 370.616,299.600 370.353 C 300.480 370.089,301.200 369.717,301.200 369.527 C 301.200 369.336,301.650 369.009,302.200 368.800 C 302.750 368.591,303.200 368.272,303.200 368.090 C 303.200 367.909,303.830 367.533,304.600 367.254 C 305.370 366.976,306.000 366.602,306.000 366.423 C 306.000 366.244,306.540 365.873,307.200 365.600 C 307.860 365.327,308.400 364.945,308.400 364.751 C 308.400 364.558,308.625 364.400,308.900 364.400 C 309.175 364.399,309.917 363.954,310.549 363.411 C 311.181 362.867,312.036 362.316,312.449 362.184 C 312.862 362.053,313.200 361.800,313.200 361.622 C 313.200 361.443,313.727 361.079,314.371 360.812 C 315.015 360.545,315.640 360.073,315.759 359.763 C 315.878 359.454,316.244 359.200,316.573 359.200 C 316.903 359.200,317.365 358.840,317.600 358.400 C 317.835 357.960,318.283 357.600,318.594 357.600 C 318.906 357.600,319.304 357.356,319.480 357.058 C 319.656 356.761,320.250 356.282,320.800 355.995 C 321.350 355.708,322.035 355.142,322.323 354.737 C 322.610 354.331,323.015 354.000,323.223 354.000 C 323.665 354.000,324.205 353.556,327.315 350.632 C 328.589 349.436,329.813 348.396,330.036 348.321 C 330.829 348.057,343.200 336.244,343.200 335.751 C 343.200 335.592,344.185 334.500,345.390 333.324 C 346.594 332.149,347.782 330.807,348.030 330.343 C 348.279 329.880,349.183 328.855,350.041 328.067 C 350.898 327.278,351.600 326.484,351.600 326.303 C 351.600 326.122,352.140 325.445,352.800 324.800 C 353.460 324.155,354.000 323.451,354.000 323.236 C 354.000 323.021,354.331 322.610,354.737 322.323 C 355.142 322.035,355.708 321.350,355.995 320.800 C 356.282 320.250,356.761 319.656,357.058 319.480 C 357.356 319.304,357.600 318.906,357.600 318.594 C 357.600 318.283,357.960 317.835,358.400 317.600 C 358.840 317.365,359.200 316.903,359.200 316.573 C 359.200 316.244,359.454 315.878,359.763 315.759 C 360.073 315.640,360.545 315.015,360.812 314.371 C 361.079 313.727,361.443 313.200,361.622 313.200 C 361.800 313.200,362.053 312.862,362.184 312.449 C 362.316 312.036,362.867 311.181,363.411 310.549 C 363.954 309.917,364.399 309.175,364.400 308.900 C 364.400 308.625,364.558 308.400,364.751 308.400 C 364.945 308.400,365.327 307.860,365.600 307.200 C 365.873 306.540,366.233 306.000,366.400 306.000 C 366.567 306.000,366.927 305.460,367.200 304.800 C 367.473 304.140,367.838 303.600,368.009 303.600 C 368.181 303.600,368.510 303.060,368.740 302.400 C 368.970 301.740,369.319 301.200,369.516 301.200 C 369.712 301.200,370.089 300.480,370.353 299.600 C 370.616 298.720,370.993 298.000,371.190 298.000 C 371.387 298.000,371.776 297.370,372.054 296.600 C 372.333 295.830,372.671 295.200,372.806 295.200 C 372.940 295.200,373.298 294.570,373.600 293.800 C 373.902 293.030,374.288 292.400,374.459 292.400 C 374.629 292.400,374.984 291.680,375.247 290.800 C 375.511 289.920,375.864 289.200,376.032 289.200 C 376.200 289.200,376.559 288.530,376.829 287.711 C 377.100 286.892,377.557 285.986,377.845 285.698 C 378.133 285.410,378.486 284.550,378.629 283.787 C 378.772 283.024,379.020 282.400,379.180 282.400 C 379.341 282.400,379.710 281.680,380.000 280.800 C 380.290 279.920,380.659 279.200,380.820 279.200 C 380.980 279.200,381.228 278.576,381.371 277.813 C 381.514 277.050,381.868 276.190,382.156 275.901 C 382.445 275.612,382.922 274.437,383.216 273.288 C 383.510 272.140,383.868 271.200,384.012 271.200 C 384.155 271.200,384.510 270.210,384.800 269.000 C 385.090 267.790,385.454 266.800,385.609 266.800 C 385.764 266.800,386.120 265.720,386.400 264.400 C 386.680 263.080,387.040 262.000,387.200 262.000 C 387.360 262.000,387.720 260.920,388.000 259.600 C 388.280 258.280,388.644 257.200,388.809 257.200 C 388.974 257.200,389.330 256.030,389.600 254.600 C 389.870 253.170,390.228 252.000,390.396 252.000 C 390.565 252.000,390.926 250.560,391.200 248.800 C 391.474 247.040,391.824 245.600,391.979 245.600 C 392.133 245.600,392.503 243.890,392.800 241.800 C 393.097 239.710,393.462 238.000,393.610 238.000 C 393.759 238.000,394.114 235.840,394.400 233.200 C 394.686 230.560,395.042 228.400,395.192 228.400 C 395.509 228.400,396.401 218.872,396.401 215.500 C 396.400 214.233,396.580 213.200,396.800 213.200 C 397.059 213.200,397.200 208.467,397.200 199.800 C 397.200 191.133,397.059 186.400,396.800 186.400 C 396.580 186.400,396.402 185.455,396.405 184.300 C 396.414 181.068,395.486 170.800,395.186 170.800 C 395.040 170.800,394.686 168.640,394.400 166.000 C 394.114 163.360,393.746 161.200,393.581 161.200 C 393.417 161.200,393.065 159.670,392.800 157.800 C 392.535 155.930,392.197 154.400,392.049 154.400 C 391.901 154.400,391.560 153.016,391.291 151.324 C 391.022 149.632,390.642 148.147,390.448 148.024 C 390.253 147.901,389.854 146.495,389.560 144.900 C 389.267 143.305,388.909 142.000,388.765 142.000 C 388.622 142.000,388.292 140.920,388.032 139.600 C 387.772 138.280,387.413 137.200,387.235 137.200 C 387.056 137.200,386.680 136.120,386.400 134.800 C 386.120 133.480,385.768 132.400,385.618 132.400 C 385.467 132.400,385.100 131.500,384.800 130.400 C 384.500 129.300,384.137 128.400,383.992 128.400 C 383.846 128.400,383.490 127.410,383.200 126.200 C 382.910 124.990,382.541 124.000,382.380 124.000 C 382.220 124.000,381.849 123.190,381.557 122.200 C 381.265 121.210,380.913 120.400,380.776 120.400 C 380.639 120.400,380.311 119.680,380.047 118.800 C 379.784 117.920,379.429 117.200,379.260 117.200 C 379.090 117.200,378.721 116.300,378.439 115.200 C 378.157 114.100,377.770 113.200,377.579 113.200 C 377.388 113.200,377.016 112.480,376.753 111.600 C 376.489 110.720,376.129 110.000,375.953 110.000 C 375.776 110.000,375.416 109.280,375.153 108.400 C 374.889 107.520,374.544 106.800,374.385 106.800 C 374.227 106.800,373.873 106.260,373.600 105.600 C 373.327 104.940,372.959 104.400,372.783 104.400 C 372.607 104.400,372.345 103.861,372.201 103.202 C 372.056 102.544,371.716 101.869,371.445 101.702 C 371.175 101.536,370.704 100.770,370.400 100.000 C 370.096 99.230,369.625 98.464,369.355 98.298 C 369.084 98.131,368.744 97.456,368.599 96.798 C 368.455 96.139,368.166 95.600,367.958 95.600 C 367.750 95.600,367.409 95.150,367.200 94.600 C 366.991 94.050,366.679 93.600,366.508 93.600 C 366.336 93.600,365.936 93.015,365.620 92.300 C 365.051 91.015,364.771 90.593,363.600 89.259 C 363.270 88.883,362.730 88.041,362.401 87.388 C 362.071 86.735,361.576 86.056,361.301 85.880 C 361.025 85.704,360.800 85.306,360.800 84.994 C 360.800 84.683,360.440 84.235,360.000 84.000 C 359.560 83.765,359.200 83.303,359.200 82.973 C 359.200 82.644,358.946 82.278,358.637 82.159 C 358.327 82.040,357.860 81.428,357.600 80.800 C 357.340 80.172,356.873 79.560,356.563 79.441 C 356.254 79.322,356.000 79.013,356.000 78.755 C 356.000 78.496,355.636 77.905,355.191 77.442 C 353.164 75.333,351.600 73.507,351.600 73.251 C 351.600 73.097,350.793 72.077,349.807 70.985 C 348.821 69.893,347.246 68.135,346.307 67.079 C 342.658 62.971,330.228 50.800,329.684 50.800 C 329.509 50.800,328.722 50.098,327.933 49.241 C 327.145 48.383,326.072 47.457,325.550 47.182 C 325.027 46.908,324.456 46.439,324.280 46.142 C 324.104 45.844,323.765 45.600,323.526 45.600 C 323.287 45.600,322.690 45.195,322.198 44.700 C 320.885 43.378,319.059 42.012,318.596 42.005 C 318.374 42.002,317.968 41.640,317.693 41.200 C 317.418 40.760,316.925 40.400,316.597 40.400 C 316.268 40.400,316.000 40.216,316.000 39.990 C 316.000 39.765,315.550 39.409,315.000 39.200 C 314.450 38.991,314.000 38.664,314.000 38.474 C 314.000 38.284,313.543 37.920,312.985 37.666 C 311.988 37.212,311.425 36.811,310.054 35.583 C 309.676 35.243,308.788 34.727,308.083 34.434 C 307.377 34.142,306.800 33.767,306.800 33.600 C 306.800 33.433,306.260 33.073,305.600 32.800 C 304.940 32.527,304.400 32.167,304.400 32.000 C 304.400 31.833,303.815 31.461,303.100 31.172 C 302.385 30.883,301.664 30.425,301.498 30.155 C 301.331 29.884,300.656 29.544,299.998 29.399 C 299.339 29.255,298.800 28.993,298.800 28.817 C 298.800 28.641,298.260 28.273,297.600 28.000 C 296.940 27.727,296.400 27.359,296.400 27.183 C 296.400 27.007,295.848 26.742,295.173 26.594 C 294.498 26.446,293.859 26.097,293.752 25.819 C 293.645 25.542,292.848 25.080,291.979 24.793 C 291.111 24.506,290.400 24.150,290.400 24.000 C 290.400 23.850,289.680 23.490,288.800 23.200 C 287.920 22.910,287.200 22.550,287.200 22.400 C 287.200 22.250,286.480 21.890,285.600 21.600 C 284.720 21.310,284.000 20.942,284.000 20.783 C 284.000 20.625,283.190 20.291,282.200 20.042 C 281.210 19.792,280.400 19.428,280.400 19.231 C 280.400 19.035,279.500 18.643,278.400 18.361 C 277.300 18.079,276.400 17.705,276.400 17.530 C 276.400 17.355,275.590 17.008,274.600 16.758 C 273.610 16.509,272.800 16.175,272.800 16.016 C 272.800 15.857,271.810 15.506,270.600 15.235 C 269.390 14.964,268.400 14.600,268.400 14.426 C 268.400 14.252,267.320 13.880,266.000 13.600 C 264.680 13.320,263.600 12.960,263.600 12.800 C 263.600 12.640,262.520 12.280,261.200 12.000 C 259.880 11.720,258.800 11.355,258.800 11.189 C 258.800 11.023,257.630 10.654,256.200 10.370 C 254.770 10.086,253.600 9.723,253.600 9.563 C 253.600 9.403,252.295 9.044,250.700 8.764 C 249.105 8.484,247.710 8.127,247.600 7.970 C 247.490 7.812,245.960 7.448,244.200 7.160 C 242.440 6.871,240.910 6.518,240.800 6.374 C 240.690 6.231,238.800 5.890,236.600 5.616 C 234.400 5.342,232.507 4.970,232.394 4.788 C 232.281 4.606,229.491 4.236,226.194 3.966 C 222.897 3.696,220.081 3.293,219.935 3.071 C 219.667 2.662,190.104 2.341,183.213 2.672 M114.975 132.541 C 138.218 135.640,150.242 146.375,152.680 166.205 C 154.516 181.136,148.578 193.088,134.619 202.561 L 133.219 203.512 136.509 204.543 C 162.824 212.794,166.798 252.833,142.989 269.823 C 131.047 278.344,122.975 279.694,85.000 279.521 L 58.600 279.400 58.497 206.000 C 58.441 165.630,58.486 132.360,58.597 132.067 C 58.913 131.239,108.323 131.653,114.975 132.541 M182.029 132.501 C 184.823 133.773,184.656 133.291,202.443 191.119 C 218.069 241.916,219.373 245.950,219.825 244.875 C 220.094 244.236,220.951 241.843,221.730 239.557 C 222.510 237.271,224.978 230.090,227.215 223.600 C 229.452 217.110,231.605 210.810,232.000 209.600 C 232.395 208.390,234.555 202.090,236.800 195.600 C 239.045 189.110,241.205 182.810,241.600 181.600 C 242.222 179.691,246.870 166.174,252.052 151.200 C 252.928 148.670,254.287 144.710,255.073 142.400 C 258.057 133.633,260.110 131.604,266.000 131.604 C 272.009 131.604,273.541 133.407,277.552 145.200 C 278.862 149.050,281.763 157.510,284.000 164.000 C 286.237 170.490,289.143 178.950,290.460 182.800 C 291.776 186.650,293.549 191.780,294.400 194.200 C 295.251 196.620,297.055 201.840,298.409 205.800 C 303.179 219.756,306.096 228.241,307.418 232.000 C 308.153 234.090,309.548 238.125,310.519 240.966 L 312.283 246.132 312.928 244.366 C 313.528 242.722,317.141 230.986,319.444 223.200 C 319.998 221.330,320.607 219.350,320.799 218.800 C 320.991 218.250,321.712 215.910,322.400 213.600 C 323.088 211.290,323.808 208.950,324.000 208.400 C 324.192 207.850,324.912 205.510,325.600 203.200 C 326.288 200.890,327.009 198.550,327.201 198.000 C 327.393 197.450,328.023 195.380,328.601 193.400 C 329.179 191.420,329.891 189.080,330.183 188.200 C 330.476 187.320,331.177 185.070,331.742 183.200 C 339.988 155.917,346.132 136.575,346.978 135.235 C 348.853 132.264,350.274 131.840,358.900 131.671 C 367.694 131.500,367.064 130.934,365.049 137.200 C 364.307 139.510,362.851 144.100,361.815 147.400 C 360.779 150.700,358.852 156.820,357.533 161.000 C 356.214 165.180,354.542 170.490,353.818 172.800 C 351.015 181.739,348.639 189.297,346.338 196.600 C 343.206 206.543,341.706 211.310,339.417 218.600 C 338.381 221.900,336.456 228.020,335.138 232.200 C 330.609 246.576,328.343 253.792,324.554 265.900 C 323.539 269.145,322.144 273.510,321.454 275.600 L 320.200 279.400 312.919 279.509 C 304.603 279.633,305.348 279.959,303.972 275.603 C 303.590 274.391,301.081 267.010,298.397 259.200 C 295.713 251.390,293.196 244.010,292.803 242.800 C 292.409 241.590,289.894 234.210,287.213 226.400 C 284.532 218.590,281.646 210.130,280.800 207.600 C 279.954 205.070,277.076 196.610,274.403 188.800 C 271.731 180.990,268.706 172.125,267.681 169.100 C 265.496 162.652,265.590 162.719,264.282 166.700 C 263.095 170.313,258.837 182.818,251.989 202.800 C 249.313 210.610,246.798 217.990,246.400 219.200 C 245.651 221.479,242.709 230.109,234.397 254.400 C 231.724 262.210,228.845 270.701,227.999 273.270 C 225.662 280.362,226.793 279.636,218.281 279.509 L 211.000 279.400 209.526 274.800 C 208.715 272.270,206.960 266.735,205.626 262.500 C 200.030 244.737,194.691 227.814,191.272 217.000 C 189.950 212.820,188.028 206.700,187.001 203.400 C 185.973 200.100,184.887 196.680,184.586 195.800 C 184.285 194.920,183.205 191.500,182.186 188.200 C 181.167 184.900,180.088 181.480,179.789 180.600 C 179.490 179.720,178.628 177.020,177.873 174.600 C 175.036 165.503,170.825 152.140,166.276 137.800 C 165.299 134.720,164.587 132.049,164.695 131.864 C 165.073 131.218,180.450 131.783,182.029 132.501 M76.800 172.616 L 76.800 197.312 93.500 197.094 C 113.718 196.831,117.961 196.043,124.915 191.258 C 138.568 181.865,138.035 159.513,123.981 152.022 C 118.000 148.834,114.226 148.347,93.700 148.113 L 76.800 147.921 76.800 172.616 M76.800 237.839 L 76.800 263.278 95.700 263.087 C 118.756 262.853,121.560 262.492,128.600 258.851 C 142.273 251.780,144.912 229.818,133.250 220.158 C 125.451 213.698,118.548 212.410,91.700 212.404 L 76.800 212.400 76.800 237.839 " stroke="none" fill="#76bed6" fill-rule="evenodd"></path></g></svg>